<svg width="120" height="52" viewBox="0 0 120 52" fill="none" xmlns="http://www.w3.org/2000/svg">
  <path
    d="M104.197 23.623C111.206 23.623 116.463 18.334 116.463 11.812C116.463 5.224 111.271 0 104.262 0C97.253 0 91.996 5.289 91.996 11.812C91.996 18.399 97.188 23.623 104.197 23.623ZM104.262 17.945C100.822 17.945 98.454 15.089 98.454 11.812C98.454 8.469 100.757 5.678 104.197 5.678C107.67 5.678 110.038 8.534 110.038 11.812C110.038 15.154 107.734 17.945 104.262 17.945Z"
    fill="#333333"/>
  <path d="M68.08 23.169H74.376V14.538H82.456V23.169H88.751V0.453979H82.456V8.95598H74.376V0.453979H68.08V23.169Z"
        fill="#333333"/>
  <path
    d="M42.672 23.169H49.746L54.127 16.322L58.475 23.169H65.711L57.923 11.552L65.387 0.453979H58.313L54.256 6.84698L50.233 0.453979H42.996L50.46 11.617L42.672 23.169Z"
    fill="#333333"/>
  <path d="M22.682 23.169H41.114V17.815H28.913V14.213H39.816V9.24798H28.913V5.80798H40.952V0.453979H22.682V23.169Z"
        fill="#333333"/>
  <path d="M6.814 23.169H13.11V5.97098H19.924V0.453979H0V5.97098H6.814V23.169Z" fill="#333333"/>
  <path
    d="M94.592 51.401H101.212L102.834 47.345H111.596L113.251 51.401H120L110.33 28.523H104.262L94.592 51.401ZM104.684 42.444L107.247 35.987L109.778 42.444H104.684Z"
    fill="#333333"/>
  <path
    d="M72.72 51.401H79.016V45.527L81.32 42.964L87.031 51.401H94.592L85.7 38.453L94.3 28.686H86.836L79.016 37.902V28.686H72.72V51.401Z"
    fill="#333333"/>
  <path
    d="M62.401 51.401H68.697V28.686H62.401V37.869C61.395 38.68 59.935 39.102 58.41 39.102C56.171 39.102 55.295 37.966 55.295 35.533V28.686H48.999V37.317C48.999 42.088 51.823 44.911 56.593 44.911C58.572 44.911 60.909 44.327 62.401 43.451V51.401Z"
    fill="#333333"/>
  <path
    d="M34.1051 51.855C41.1141 51.855 46.3711 46.566 46.3711 40.043C46.3711 33.456 41.1791 28.231 34.1701 28.231C27.1611 28.231 21.9041 33.52 21.9041 40.043C21.9041 46.63 27.0961 51.855 34.1051 51.855Z"
    fill="#008ED1"/>
  <path d="M6.814 51.401H13.11V34.202H19.924V28.686H0V34.202H6.814V51.401Z" fill="#333333"/>
  <path fill-rule="evenodd" clip-rule="evenodd"
        d="M30.95 49.027C30.727 49.616 31.17 49.88 31.58 49.402L39.839 39.779C40.265 39.282 40.119 38.973 39.468 38.973H34.801L39.905 33.023C40.364 32.489 40.263 32.217 39.535 32.217H34.389C34.085 32.217 33.75 32.418 33.607 32.686L28.48 42.293C28.225 42.771 28.344 42.996 28.902 42.996H33.231L30.95 49.027Z"
        fill="white"/>
</svg>
