<svg width="120" height="52" viewBox="0 0 120 52" fill="none" xmlns="http://www.w3.org/2000/svg">
  <path
    d="M104.197 23.6891C111.206 23.6891 116.463 18.3853 116.463 11.845C116.463 5.23861 111.271 0 104.262 0C97.253 0 91.996 5.30379 91.996 11.845C91.996 18.4504 97.188 23.6891 104.197 23.6891ZM104.262 17.9952C100.822 17.9952 98.454 15.1312 98.454 11.845C98.454 8.49268 100.757 5.69388 104.197 5.69388C107.67 5.69388 110.038 8.55786 110.038 11.845C110.038 15.1964 107.734 17.9952 104.262 17.9952Z"
    fill="#E3F6FF"/>
  <path d="M68.08 23.2336H74.376V14.5785H82.456V23.2336H88.751V0.455078H82.456V8.98085H74.376V0.455078H68.08V23.2336Z"
        fill="#E3F6FF"/>
  <path
    d="M42.672 23.2336H49.746L54.127 16.3674L58.475 23.2336H65.711L57.923 11.5841L65.387 0.455078H58.313L54.256 6.86595L50.233 0.455078H42.996L50.46 11.6493L42.672 23.2336Z"
    fill="#E3F6FF"/>
  <path d="M22.682 23.2336H41.114V17.8646H28.913V14.2526H39.816V9.27367H28.913V5.82405H40.952V0.455078H22.682V23.2336Z"
        fill="#E3F6FF"/>
  <path d="M6.814 23.2336H13.11V5.9875H19.924V0.455078H0V5.9875H6.814V23.2336Z" fill="#E3F6FF"/>
  <path
    d="M94.592 51.5445H101.212L102.834 47.4772H111.596L113.251 51.5445H120L110.33 28.6025H104.262L94.592 51.5445ZM104.684 42.5625L107.247 36.0874L109.778 42.5625H104.684Z"
    fill="#E3F6FF"/>
  <path
    d="M72.72 51.5446H79.016V45.6542L81.32 43.084L87.031 51.5446H94.592L85.7 38.5604L94.3 28.7661H86.836L79.016 38.0079V28.7661H72.72V51.5446Z"
    fill="#E3F6FF"/>
  <path
    d="M62.401 51.5446H68.697V28.7661H62.401V37.9748C61.395 38.7881 59.935 39.2112 58.41 39.2112C56.171 39.2112 55.295 38.0721 55.295 35.6323V28.7661H48.999V37.4212C48.999 42.2056 51.823 45.0365 56.593 45.0365C58.572 45.0365 60.909 44.4509 62.401 43.5724V51.5446Z"
    fill="#E3F6FF"/>
  <path
    d="M34.105 52.0001C41.114 52.0001 46.371 46.6963 46.371 40.1551C46.371 33.5497 41.179 28.3101 34.17 28.3101C27.161 28.3101 21.904 33.6138 21.904 40.1551C21.904 46.7605 27.096 52.0001 34.105 52.0001Z"
    fill="#008ED1"/>
  <path d="M6.814 51.5446H13.11V34.2975H19.924V28.7661H0V34.2975H6.814V51.5446Z" fill="#E3F6FF"/>
  <path fill-rule="evenodd" clip-rule="evenodd"
        d="M30.95 49.1641C30.727 49.7548 31.17 50.0195 31.58 49.5402L39.839 39.8903C40.265 39.3919 40.119 39.082 39.468 39.082H34.801L39.905 33.1154C40.364 32.5799 40.263 32.3071 39.535 32.3071H34.389C34.085 32.3071 33.75 32.5087 33.607 32.7774L28.48 42.4113C28.225 42.8906 28.344 43.1163 28.902 43.1163H33.231L30.95 49.1641Z"
        fill="white"/>
</svg>
